<svg width="675" height="675" viewBox="0 0 675 675" fill="none" xmlns="http://www.w3.org/2000/svg">
<circle cx="337.5" cy="337.5" r="337.5" fill="#F8F8F8"/>
<path d="M384.256 155.489C389.374 142.221 392.998 128.689 395.197 115.096C407.747 132.21 417.479 151.136 424.12 171.099C427.687 181.819 430.362 192.837 432.105 204.034C432.279 205.154 432.444 206.276 432.6 207.4C437.551 243.141 433.015 280.57 417.644 315.815C417.553 316.024 417.461 316.233 417.369 316.441C430.272 318.975 443.336 319.035 455.935 316.84C456.049 316.82 456.163 316.8 456.276 316.78C440.515 341.951 415.451 358.585 387.84 364.332C365.708 368.937 341.938 366.547 320.011 355.949C286.641 339.819 265.517 308.536 260.91 274.363C258.222 254.418 261.16 233.488 270.573 214.011C286.009 182.076 315.323 161.356 347.768 155.596C345.714 158.876 343.818 162.301 342.095 165.865C338.791 172.702 336.284 179.718 334.539 186.807C331.357 199.733 330.705 212.904 332.361 225.681C332.597 227.499 332.879 229.309 333.208 231.11C341.589 223.317 349.371 214.746 356.435 205.44C363.262 196.445 369.419 186.763 374.799 176.43C375.741 174.62 376.659 172.79 377.553 170.941C380.019 165.839 382.252 160.684 384.256 155.489Z" fill="#009DE0"/>
<path d="M422.533 232.899C427.138 221.483 432.844 210.783 439.487 200.887C421.435 204.292 404.095 210.511 388.095 219.211C379.504 223.883 371.3 229.27 363.58 235.321C362.808 235.927 362.04 236.539 361.278 237.157C337.022 256.835 317.769 283.188 306.66 314.563C306.594 314.749 306.529 314.936 306.463 315.122C296.806 309.099 288.508 301.415 281.837 292.58C281.776 292.501 281.716 292.421 281.656 292.341C276.748 317.575 282.768 342.909 296.834 362.862C308.109 378.856 324.555 391.393 344.687 397.65C375.324 407.172 407.173 399.872 430.284 380.982C443.773 369.956 454.285 354.983 459.843 337.101C468.955 307.781 462.662 277.351 445.547 254.533C444.907 257.821 444.082 261.107 443.065 264.38C441.114 270.657 438.553 276.576 435.467 282.091C429.839 292.147 422.467 300.862 413.868 307.963C412.645 308.974 411.396 309.952 410.124 310.896C409.43 301.014 409.573 290.995 410.606 280.934C411.604 271.21 413.433 261.447 416.138 251.733C416.611 250.032 417.112 248.331 417.64 246.633C419.096 241.949 420.73 237.369 422.533 232.899Z" fill="#2EC0FF"/>
<path d="M276.712 237.978C274.252 221.248 273.594 204.605 274.605 188.264C255.566 204.824 239.321 224.226 226.388 245.639C219.444 257.137 213.454 269.215 208.499 281.745C208.004 282.998 207.519 284.256 207.044 285.518C191.938 325.673 187.393 370.272 195.987 415.175C196.038 415.442 196.09 415.708 196.142 415.974L217.843 479.253C242.305 490.393 270.499 493.848 298.707 487.3C341.635 477.336 374.33 446.588 388.625 408.161C396.968 385.733 399.044 360.689 393.229 335.634C383.693 294.552 355.122 262.841 319.003 247.661C320.525 252.003 321.827 256.472 322.891 261.057C324.933 269.852 326.002 278.646 326.169 287.325C326.473 303.151 323.778 318.597 318.51 332.981C317.761 335.028 316.959 337.054 316.106 339.056C308.428 327.822 301.648 315.843 295.893 303.199C290.331 290.978 285.726 278.136 282.194 264.743C281.576 262.397 280.99 260.034 280.438 257.655C278.914 251.091 277.675 244.528 276.712 237.978Z" fill="#2EC0FF"/>
<path d="M362.063 234.051C363.695 214.217 367.37 194.963 372.877 176.498C346.644 190.416 322.858 208.336 302.334 229.442C291.313 240.776 281.233 253.028 272.218 266.074C271.317 267.379 270.426 268.692 269.545 270.012C241.544 312.027 224.465 361.945 222.369 415.709C222.357 416.028 222.345 416.347 222.333 416.666C204.535 412.001 188.039 404.121 173.502 393.684C173.371 393.589 173.24 393.495 173.109 393.401C177.638 434.71 199.086 470.93 230.373 494.983C255.453 514.263 286.855 525.726 320.934 525.726C372.798 525.726 418.462 499.177 445.075 458.928C460.608 435.437 469.652 407.279 469.652 377.008C469.652 327.374 445.337 283.419 407.969 256.405C408.559 261.788 408.862 267.257 408.862 272.797C408.862 283.423 407.748 293.788 405.63 303.783C401.767 322.006 394.568 338.996 384.701 354.085C383.297 356.232 381.839 358.341 380.328 360.409C374.515 345.487 369.93 329.951 366.697 313.924C363.573 298.434 361.712 282.486 361.227 266.193C361.142 263.339 361.099 260.474 361.099 257.6C361.099 249.67 361.424 241.816 362.063 234.051Z" fill="#84DAFF"/>
<path d="M362.063 234.051C363.695 214.217 367.37 194.963 372.877 176.498C346.644 190.416 322.858 208.336 302.334 229.442C291.313 240.776 281.233 253.028 272.218 266.074C271.317 267.379 270.426 268.692 269.545 270.012C241.544 312.027 224.465 361.945 222.369 415.709C222.357 416.028 222.345 416.347 222.333 416.666C204.535 412.001 188.039 404.121 173.502 393.684C173.371 393.589 173.24 393.495 173.109 393.401C177.638 434.71 199.086 470.93 230.373 494.983C255.453 514.263 286.855 525.726 320.934 525.726C372.798 525.726 418.462 499.177 445.075 458.928C460.608 435.437 469.652 407.279 469.652 377.008C469.652 327.374 445.337 283.419 407.969 256.405C408.559 261.788 408.862 267.257 408.862 272.797C408.862 283.423 407.748 293.788 405.63 303.783C401.767 322.006 394.568 338.996 384.701 354.085C383.297 356.232 381.839 358.341 380.328 360.409C374.515 345.487 369.93 329.951 366.697 313.924C363.573 298.434 361.712 282.486 361.227 266.193C361.142 263.339 361.099 260.474 361.099 257.6C361.099 249.67 361.424 241.816 362.063 234.051Z" fill="url(#paint0_linear_7_56)" fill-opacity="0.2"/>
<defs>
<linearGradient id="paint0_linear_7_56" x1="424.862" y1="501.21" x2="345.362" y2="188.21" gradientUnits="userSpaceOnUse">
<stop stop-color="#00A8F0"/>
<stop offset="1" stop-color="white" stop-opacity="0.43"/>
</linearGradient>
</defs>
</svg>
