<svg width="575" height="575" viewBox="0 0 575 575" fill="none" xmlns="http://www.w3.org/2000/svg">
<rect width="575" height="575" rx="92" fill="#F8F8F8"/>
<path d="M334.256 107.489C339.374 94.2205 342.998 80.6891 345.197 67.0962C357.747 84.2095 367.479 103.136 374.12 123.099C377.687 133.819 380.362 144.837 382.105 156.034C382.279 157.154 382.444 158.276 382.6 159.4C387.551 195.141 383.015 232.57 367.644 267.815C367.553 268.024 367.461 268.233 367.369 268.441C380.272 270.975 393.336 271.035 405.935 268.84C406.049 268.82 406.163 268.8 406.276 268.78C390.515 293.951 365.451 310.585 337.84 316.332C315.708 320.937 291.938 318.547 270.011 307.949C236.641 291.819 215.517 260.536 210.91 226.363C208.222 206.418 211.16 185.488 220.573 166.011C236.009 134.076 265.323 113.356 297.768 107.596C295.714 110.876 293.818 114.301 292.095 117.865C288.791 124.702 286.284 131.718 284.539 138.807C281.357 151.733 280.705 164.904 282.361 177.681C282.597 179.499 282.879 181.309 283.208 183.11C291.589 175.317 299.371 166.746 306.435 157.44C313.262 148.445 319.419 138.763 324.799 128.43C325.741 126.62 326.659 124.79 327.553 122.941C330.019 117.839 332.252 112.684 334.256 107.489Z" fill="#009DE0"/>
<path d="M372.533 184.899C377.138 173.483 382.844 162.783 389.487 152.887C371.435 156.292 354.095 162.511 338.095 171.211C329.504 175.883 321.3 181.27 313.58 187.321C312.808 187.927 312.04 188.539 311.278 189.157C287.022 208.835 267.769 235.188 256.66 266.563C256.594 266.749 256.529 266.936 256.463 267.122C246.806 261.099 238.508 253.415 231.837 244.58C231.776 244.501 231.716 244.421 231.656 244.341C226.748 269.575 232.768 294.909 246.834 314.862C258.109 330.856 274.555 343.393 294.687 349.65C325.324 359.172 357.173 351.872 380.284 332.982C393.773 321.956 404.285 306.983 409.843 289.101C418.955 259.781 412.662 229.351 395.547 206.533C394.907 209.821 394.082 213.107 393.065 216.38C391.114 222.657 388.553 228.576 385.467 234.091C379.839 244.147 372.467 252.862 363.868 259.963C362.645 260.974 361.396 261.952 360.124 262.896C359.43 253.014 359.573 242.995 360.606 232.934C361.604 223.21 363.433 213.447 366.138 203.733C366.611 202.032 367.112 200.331 367.64 198.633C369.096 193.949 370.73 189.369 372.533 184.899Z" fill="#2EC0FF"/>
<path d="M226.712 189.978C224.252 173.248 223.594 156.605 224.605 140.264C205.566 156.824 189.321 176.226 176.388 197.639C169.444 209.137 163.454 221.215 158.499 233.745C158.004 234.998 157.519 236.256 157.044 237.518C141.938 277.673 137.393 322.272 145.987 367.175C146.038 367.442 146.09 367.708 146.142 367.974L167.843 431.253C192.305 442.393 220.499 445.848 248.707 439.3C291.635 429.336 324.33 398.588 338.625 360.161C346.968 337.733 349.044 312.689 343.229 287.634C333.693 246.552 305.122 214.841 269.003 199.661C270.525 204.003 271.827 208.472 272.891 213.057C274.933 221.852 276.002 230.646 276.169 239.325C276.473 255.151 273.778 270.597 268.51 284.981C267.761 287.028 266.959 289.054 266.106 291.056C258.428 279.822 251.648 267.843 245.893 255.199C240.331 242.978 235.726 230.136 232.194 216.743C231.576 214.397 230.99 212.034 230.438 209.655C228.914 203.091 227.675 196.528 226.712 189.978Z" fill="#2EC0FF"/>
<path d="M312.063 186.051C313.695 166.217 317.37 146.963 322.877 128.498C296.644 142.416 272.858 160.335 252.334 181.442C241.313 192.776 231.233 205.028 222.218 218.074C221.317 219.379 220.426 220.692 219.545 222.012C191.544 264.027 174.465 313.945 172.369 367.709C172.357 368.028 172.345 368.347 172.333 368.666C154.535 364.001 138.039 356.121 123.502 345.684C123.371 345.589 123.24 345.495 123.109 345.401C127.638 386.71 149.086 422.93 180.373 446.983C205.453 466.263 236.855 477.726 270.934 477.726C322.798 477.726 368.462 451.177 395.075 410.928C410.608 387.437 419.652 359.279 419.652 329.008C419.652 279.374 395.337 235.419 357.969 208.405C358.559 213.788 358.862 219.257 358.862 224.797C358.862 235.423 357.748 245.788 355.63 255.783C351.767 274.006 344.568 290.996 334.701 306.085C333.297 308.232 331.839 310.341 330.328 312.409C324.515 297.487 319.93 281.951 316.697 265.924C313.573 250.434 311.712 234.486 311.227 218.193C311.142 215.339 311.099 212.474 311.099 209.6C311.099 201.67 311.424 193.816 312.063 186.051Z" fill="#84DAFF"/>
<path d="M312.063 186.051C313.695 166.217 317.37 146.963 322.877 128.498C296.644 142.416 272.858 160.335 252.334 181.442C241.313 192.776 231.233 205.028 222.218 218.074C221.317 219.379 220.426 220.692 219.545 222.012C191.544 264.027 174.465 313.945 172.369 367.709C172.357 368.028 172.345 368.347 172.333 368.666C154.535 364.001 138.039 356.121 123.502 345.684C123.371 345.589 123.24 345.495 123.109 345.401C127.638 386.71 149.086 422.93 180.373 446.983C205.453 466.263 236.855 477.726 270.934 477.726C322.798 477.726 368.462 451.177 395.075 410.928C410.608 387.437 419.652 359.279 419.652 329.008C419.652 279.374 395.337 235.419 357.969 208.405C358.559 213.788 358.862 219.257 358.862 224.797C358.862 235.423 357.748 245.788 355.63 255.783C351.767 274.006 344.568 290.996 334.701 306.085C333.297 308.232 331.839 310.341 330.328 312.409C324.515 297.487 319.93 281.951 316.697 265.924C313.573 250.434 311.712 234.486 311.227 218.193C311.142 215.339 311.099 212.474 311.099 209.6C311.099 201.67 311.424 193.816 312.063 186.051Z" fill="url(#paint0_linear_7_58)" fill-opacity="0.2"/>
<defs>
<linearGradient id="paint0_linear_7_58" x1="374.862" y1="453.21" x2="295.362" y2="140.21" gradientUnits="userSpaceOnUse">
<stop stop-color="#00A8F0"/>
<stop offset="1" stop-color="white" stop-opacity="0.43"/>
</linearGradient>
</defs>
</svg>
