<svg width="865" height="705" viewBox="0 0 865 705" fill="none" xmlns="http://www.w3.org/2000/svg">
<rect x="160" y="0.526306" width="500" height="703.947" rx="65.7895" fill="#F8F8F8"/>
<path d="M469.256 178.489C474.374 165.221 477.998 151.689 480.197 138.096C492.747 155.21 502.478 174.136 509.12 194.099C512.686 204.819 515.362 215.837 517.105 227.034C517.279 228.154 517.444 229.276 517.6 230.4C522.551 266.141 518.015 303.57 502.644 338.815C502.552 339.024 502.461 339.233 502.369 339.441C515.271 341.975 528.336 342.035 540.935 339.84C541.049 339.82 541.162 339.8 541.276 339.78C525.515 364.951 500.451 381.585 472.84 387.332C450.708 391.937 426.938 389.547 405.011 378.949C371.641 362.819 350.517 331.536 345.91 297.363C343.221 277.418 346.16 256.488 355.573 237.011C371.009 205.076 400.323 184.356 432.768 178.596C430.714 181.876 428.818 185.301 427.095 188.865C423.791 195.702 421.284 202.718 419.539 209.807C416.357 222.733 415.705 235.904 417.361 248.681C417.597 250.499 417.879 252.309 418.208 254.11C426.589 246.317 434.371 237.746 441.435 228.44C448.262 219.445 454.419 209.763 459.799 199.43C460.741 197.62 461.659 195.79 462.553 193.941C465.019 188.839 467.252 183.684 469.256 178.489Z" fill="#009DE0"/>
<path d="M507.533 255.899C512.138 244.483 517.844 233.783 524.487 223.887C506.435 227.292 489.095 233.511 473.095 242.211C464.504 246.883 456.3 252.27 448.58 258.321C447.808 258.927 447.04 259.539 446.278 260.157C422.022 279.835 402.769 306.188 391.66 337.563C391.594 337.749 391.529 337.936 391.463 338.122C381.806 332.099 373.508 324.415 366.837 315.58C366.776 315.501 366.716 315.421 366.656 315.341C361.748 340.575 367.768 365.909 381.834 385.862C393.109 401.856 409.555 414.393 429.687 420.65C460.324 430.172 492.173 422.872 515.284 403.982C528.773 392.956 539.285 377.983 544.843 360.101C553.955 330.781 547.662 300.351 530.547 277.533C529.907 280.821 529.082 284.107 528.065 287.38C526.114 293.657 523.553 299.576 520.467 305.091C514.839 315.147 507.467 323.862 498.868 330.963C497.645 331.974 496.396 332.952 495.124 333.896C494.43 324.014 494.573 313.995 495.606 303.934C496.604 294.21 498.433 284.447 501.138 274.733C501.611 273.032 502.112 271.331 502.64 269.633C504.096 264.949 505.73 260.369 507.533 255.899Z" fill="#2EC0FF"/>
<path d="M361.712 260.978C359.252 244.248 358.594 227.605 359.605 211.264C340.566 227.824 324.321 247.226 311.388 268.639C304.444 280.137 298.454 292.215 293.499 304.745C293.004 305.998 292.519 307.256 292.044 308.518C276.938 348.673 272.393 393.272 280.987 438.175C281.038 438.442 281.09 438.708 281.142 438.974L302.843 502.253C327.305 513.393 355.499 516.848 383.707 510.3C426.635 500.336 459.33 469.588 473.625 431.161C481.968 408.733 484.044 383.689 478.229 358.634C468.693 317.552 440.122 285.841 404.003 270.661C405.525 275.003 406.827 279.472 407.891 284.057C409.933 292.852 411.002 301.646 411.169 310.325C411.473 326.151 408.778 341.597 403.51 355.981C402.761 358.028 401.959 360.054 401.106 362.056C393.428 350.822 386.648 338.843 380.893 326.199C375.331 313.978 370.726 301.136 367.194 287.743C366.576 285.397 365.99 283.034 365.438 280.655C363.914 274.091 362.675 267.528 361.712 260.978Z" fill="#2EC0FF"/>
<path d="M447.063 257.051C448.695 237.217 452.37 217.963 457.877 199.498C431.644 213.416 407.858 231.335 387.334 252.442C376.313 263.776 366.233 276.028 357.218 289.074C356.317 290.379 355.426 291.692 354.545 293.012C326.544 335.027 309.465 384.945 307.369 438.709C307.357 439.028 307.345 439.347 307.333 439.666C289.535 435.001 273.039 427.121 258.502 416.684C258.371 416.589 258.24 416.495 258.109 416.401C262.638 457.71 284.086 493.93 315.373 517.983C340.453 537.263 371.855 548.726 405.934 548.726C457.798 548.726 503.462 522.177 530.075 481.928C545.608 458.437 554.652 430.279 554.652 400.008C554.652 350.374 530.337 306.419 492.969 279.405C493.559 284.788 493.862 290.257 493.862 295.797C493.862 306.423 492.748 316.788 490.63 326.783C486.767 345.006 479.568 361.996 469.701 377.085C468.297 379.232 466.839 381.341 465.328 383.409C459.515 368.487 454.93 352.951 451.697 336.924C448.573 321.434 446.712 305.486 446.227 289.193C446.142 286.339 446.099 283.474 446.099 280.6C446.099 272.67 446.424 264.816 447.063 257.051Z" fill="#84DAFF"/>
<path d="M447.063 257.051C448.695 237.217 452.37 217.963 457.877 199.498C431.644 213.416 407.858 231.335 387.334 252.442C376.313 263.776 366.233 276.028 357.218 289.074C356.317 290.379 355.426 291.692 354.545 293.012C326.544 335.027 309.465 384.945 307.369 438.709C307.357 439.028 307.345 439.347 307.333 439.666C289.535 435.001 273.039 427.121 258.502 416.684C258.371 416.589 258.24 416.495 258.109 416.401C262.638 457.71 284.086 493.93 315.373 517.983C340.453 537.263 371.855 548.726 405.934 548.726C457.798 548.726 503.462 522.177 530.075 481.928C545.608 458.437 554.652 430.279 554.652 400.008C554.652 350.374 530.337 306.419 492.969 279.405C493.559 284.788 493.862 290.257 493.862 295.797C493.862 306.423 492.748 316.788 490.63 326.783C486.767 345.006 479.568 361.996 469.701 377.085C468.297 379.232 466.839 381.341 465.328 383.409C459.515 368.487 454.93 352.951 451.697 336.924C448.573 321.434 446.712 305.486 446.227 289.193C446.142 286.339 446.099 283.474 446.099 280.6C446.099 272.67 446.424 264.816 447.063 257.051Z" fill="url(#paint0_linear_7_48)" fill-opacity="0.2"/>
<path d="M802.642 129.718L642.247 129.718L642.247 75.6419L761.856 75.6419L761.856 48.1457L802.642 48.1457L802.642 129.718ZM638.581 222.052C638.581 207.846 641.865 195.243 648.434 184.245C655.155 173.399 664.779 164.845 677.305 158.582C689.984 152.471 705.03 149.416 722.444 149.416C739.859 149.416 754.829 152.471 767.355 158.582C780.034 164.845 789.657 173.399 796.226 184.245C802.947 195.243 806.308 207.846 806.308 222.052C806.308 236.258 802.947 248.785 796.226 259.63C789.657 270.629 780.034 279.183 767.355 285.293C754.829 291.556 739.859 294.688 722.444 294.688C705.03 294.688 689.984 291.556 677.305 285.293C664.779 279.183 655.155 270.629 648.434 259.63C641.865 248.785 638.581 236.258 638.581 222.052ZM681.888 222.052C681.888 234.273 695.407 240.383 722.444 240.383C749.482 240.383 763.001 234.273 763.001 222.052C763.001 209.832 749.482 203.721 722.444 203.721C695.407 203.721 681.888 209.832 681.888 222.052ZM638.581 380.701C638.581 366.495 641.865 353.893 648.434 342.894C655.155 332.048 664.779 323.494 677.305 317.231C689.984 311.121 705.03 308.065 722.444 308.065C739.859 308.065 754.829 311.121 767.355 317.231C780.034 323.494 789.657 332.048 796.226 342.894C802.947 353.893 806.308 366.495 806.308 380.701C806.308 394.908 802.947 407.434 796.226 418.279C789.657 429.278 780.034 437.832 767.355 443.943C754.829 450.206 739.859 453.337 722.444 453.337C705.03 453.337 689.984 450.206 677.305 443.943C664.779 437.832 655.155 429.278 648.434 418.279C641.865 407.434 638.581 394.908 638.581 380.701ZM681.888 380.701C681.888 392.922 695.407 399.032 722.444 399.032C749.482 399.032 763.001 392.922 763.001 380.701C763.001 368.481 749.482 362.371 722.444 362.371C695.407 362.371 681.888 368.481 681.888 380.701ZM715.57 506.355C715.57 493.829 719.542 483.594 727.485 475.651C735.429 467.708 746.351 463.736 760.252 463.736C769.57 463.736 777.59 465.569 784.311 469.235C791.032 472.901 796.15 477.942 799.663 484.358C803.176 490.927 804.933 498.259 804.933 506.355C804.933 514.451 803.176 521.707 799.663 528.123C796.15 534.691 791.032 539.809 784.311 543.475C777.59 547.141 769.57 548.974 760.252 548.974C746.351 548.974 735.429 545.003 727.485 537.059C719.542 529.116 715.57 518.881 715.57 506.355ZM802.642 600.53L802.642 639.253L642.247 529.727L642.247 491.003L802.642 600.53ZM740.317 506.355C740.317 509.257 741.845 511.625 744.9 513.458C748.108 515.444 753.225 516.437 760.252 516.437C767.279 516.437 772.32 515.444 775.375 513.458C778.583 511.625 780.187 509.257 780.187 506.355C780.187 503.453 778.583 501.009 775.375 499.023C772.32 497.19 767.279 496.273 760.252 496.273C753.225 496.273 748.108 497.19 744.9 499.023C741.845 501.009 740.317 503.453 740.317 506.355ZM639.956 623.901C639.956 611.375 643.927 601.141 651.871 593.197C659.814 585.254 670.736 581.282 684.637 581.282C693.955 581.282 701.975 583.115 708.696 586.782C715.418 590.448 720.535 595.489 724.048 601.904C727.562 608.473 729.319 615.805 729.319 623.901C729.319 631.998 727.562 639.253 724.048 645.669C720.535 652.238 715.418 657.355 708.696 661.021C701.975 664.687 693.955 666.521 684.637 666.521C670.736 666.521 659.814 662.549 651.871 654.606C643.927 646.662 639.956 636.427 639.956 623.901ZM664.702 623.901C664.702 626.804 666.23 629.172 669.285 631.005C672.493 632.99 677.61 633.983 684.637 633.983C691.664 633.983 696.705 632.99 699.76 631.005C702.968 629.172 704.572 626.804 704.572 623.901C704.572 620.999 702.968 618.555 699.76 616.569C696.705 614.736 691.664 613.819 684.637 613.819C677.61 613.819 672.493 614.736 669.285 616.569C666.23 618.555 664.702 620.999 664.702 623.901Z" fill="#F8F8F8"/>
<path d="M164.683 597.567C164.683 609.978 162.112 621.159 156.969 631.11C151.714 641.061 144.446 648.887 135.166 654.589C125.774 660.18 115.152 662.975 103.301 662.975C91.4492 662.975 80.8833 660.18 71.6032 654.589C62.2114 648.887 54.9439 641.061 49.8007 631.11C44.5457 621.159 41.9182 609.978 41.9182 597.567C41.9182 586.163 43.9308 575.988 47.9559 567.044C51.9809 558.099 57.7949 550.72 65.3979 544.906L87.7036 569.895C78.5353 577.162 73.9512 585.716 73.9512 595.555C73.9512 603.828 76.6346 610.481 82.0014 615.512C87.2564 620.544 94.3562 623.059 103.301 623.059C112.245 623.059 119.401 620.544 124.768 615.512C130.023 610.481 132.65 603.828 132.65 595.555C132.65 585.716 128.066 577.162 118.898 569.895L141.204 544.906C148.807 550.72 154.621 558.099 158.646 567.044C162.671 575.988 164.683 586.163 164.683 597.567ZM44.6016 419.406L162 419.406L162 458.315L75.2929 458.315L75.2929 494.038L162 494.038L162 532.947L44.6016 532.947L44.6016 419.406ZM44.6016 398.646L44.6016 359.737L105.649 359.737L44.6016 319.319L44.6016 282.087L162 282.087L162 320.996L101.121 320.996L162 361.247L162 398.646L44.6016 398.646ZM44.6016 204.715C44.6016 193.87 46.3905 184.422 49.9684 176.372C53.5462 168.322 58.6894 162.116 65.3979 157.756C72.1064 153.395 79.9329 151.215 88.8776 151.215C97.8222 151.215 105.649 153.395 112.357 157.756C119.066 162.116 124.209 168.322 127.787 176.372C131.365 184.422 133.154 193.87 133.154 204.715L133.154 221.654L162 221.654L162 261.234L44.6016 261.234L44.6016 204.715ZM102.63 207.231C102.63 201.864 101.456 197.839 99.108 195.155C96.6482 192.472 93.2381 191.13 88.8776 191.13C84.517 191.13 81.1628 192.472 78.8148 195.155C76.3551 197.839 75.1252 201.864 75.1252 207.231L75.1252 221.654L102.63 221.654L102.63 207.231ZM75.2929 41.8811L75.2929 76.2621L162 76.2621L162 115.171L75.2929 115.171L75.2929 149.552L44.6016 149.552L44.6016 41.8811L75.2929 41.8811Z" fill="#F8F8F8"/>
<defs>
<linearGradient id="paint0_linear_7_48" x1="509.862" y1="524.21" x2="430.362" y2="211.21" gradientUnits="userSpaceOnUse">
<stop stop-color="#00A8F0"/>
<stop offset="1" stop-color="white" stop-opacity="0.43"/>
</linearGradient>
</defs>
</svg>
