<svg width="500" height="705" viewBox="0 0 500 705" fill="none" xmlns="http://www.w3.org/2000/svg">
<rect y="0.526306" width="500" height="703.947" rx="65.7895" fill="#F8F8F8"/>
<path d="M309.256 178.489C314.374 165.221 317.998 151.689 320.197 138.096C332.747 155.21 342.478 174.136 349.12 194.099C352.686 204.819 355.362 215.837 357.105 227.034C357.279 228.154 357.444 229.276 357.6 230.4C362.551 266.141 358.015 303.57 342.644 338.815C342.552 339.024 342.461 339.233 342.369 339.441C355.271 341.975 368.336 342.035 380.935 339.84C381.049 339.82 381.162 339.8 381.276 339.78C365.515 364.951 340.451 381.585 312.84 387.332C290.708 391.937 266.938 389.547 245.011 378.949C211.641 362.819 190.517 331.536 185.91 297.363C183.221 277.418 186.16 256.488 195.573 237.011C211.009 205.076 240.323 184.356 272.768 178.596C270.714 181.876 268.818 185.301 267.095 188.865C263.791 195.702 261.284 202.718 259.539 209.807C256.357 222.733 255.705 235.904 257.361 248.681C257.597 250.499 257.879 252.309 258.208 254.11C266.589 246.317 274.371 237.746 281.435 228.44C288.262 219.445 294.419 209.763 299.799 199.43C300.741 197.62 301.659 195.79 302.553 193.941C305.019 188.839 307.252 183.684 309.256 178.489Z" fill="#009DE0"/>
<path d="M347.533 255.899C352.138 244.483 357.844 233.783 364.487 223.887C346.435 227.292 329.095 233.511 313.095 242.211C304.504 246.883 296.3 252.27 288.58 258.321C287.808 258.927 287.04 259.539 286.278 260.157C262.022 279.835 242.769 306.188 231.66 337.563C231.594 337.749 231.529 337.936 231.463 338.122C221.806 332.099 213.508 324.415 206.837 315.58C206.776 315.501 206.716 315.421 206.656 315.341C201.748 340.575 207.768 365.909 221.834 385.862C233.109 401.856 249.555 414.393 269.687 420.65C300.324 430.172 332.173 422.872 355.284 403.982C368.773 392.956 379.285 377.983 384.843 360.101C393.955 330.781 387.662 300.351 370.547 277.533C369.907 280.821 369.082 284.107 368.065 287.38C366.114 293.657 363.553 299.576 360.467 305.091C354.839 315.147 347.467 323.862 338.868 330.963C337.645 331.974 336.396 332.952 335.124 333.896C334.43 324.014 334.573 313.995 335.606 303.934C336.604 294.21 338.433 284.447 341.138 274.733C341.611 273.032 342.112 271.331 342.64 269.633C344.096 264.949 345.73 260.369 347.533 255.899Z" fill="#2EC0FF"/>
<path d="M201.712 260.978C199.252 244.248 198.594 227.605 199.605 211.264C180.566 227.824 164.321 247.226 151.388 268.639C144.444 280.137 138.454 292.215 133.499 304.745C133.004 305.998 132.519 307.256 132.044 308.518C116.938 348.673 112.393 393.272 120.987 438.175C121.038 438.442 121.09 438.708 121.142 438.974L142.843 502.253C167.305 513.393 195.499 516.848 223.707 510.3C266.635 500.336 299.33 469.588 313.625 431.161C321.968 408.733 324.044 383.689 318.229 358.634C308.693 317.552 280.122 285.841 244.003 270.661C245.525 275.003 246.827 279.472 247.891 284.057C249.933 292.852 251.002 301.646 251.169 310.325C251.473 326.151 248.778 341.597 243.51 355.981C242.761 358.028 241.959 360.054 241.106 362.056C233.428 350.822 226.648 338.843 220.893 326.199C215.331 313.978 210.726 301.136 207.194 287.743C206.576 285.397 205.99 283.034 205.438 280.655C203.914 274.091 202.675 267.528 201.712 260.978Z" fill="#2EC0FF"/>
<path d="M287.063 257.051C288.695 237.217 292.37 217.963 297.877 199.498C271.644 213.416 247.858 231.335 227.334 252.442C216.313 263.776 206.233 276.028 197.218 289.074C196.317 290.379 195.426 291.692 194.545 293.012C166.544 335.027 149.465 384.945 147.369 438.709C147.357 439.028 147.345 439.347 147.333 439.666C129.535 435.001 113.039 427.121 98.5019 416.684C98.3708 416.589 98.2399 416.495 98.1091 416.401C102.638 457.71 124.086 493.93 155.373 517.983C180.453 537.263 211.855 548.726 245.934 548.726C297.798 548.726 343.462 522.177 370.075 481.928C385.608 458.437 394.652 430.279 394.652 400.008C394.652 350.374 370.337 306.419 332.969 279.405C333.559 284.788 333.862 290.257 333.862 295.797C333.862 306.423 332.748 316.788 330.63 326.783C326.767 345.006 319.568 361.996 309.701 377.085C308.297 379.232 306.839 381.341 305.328 383.409C299.515 368.487 294.93 352.951 291.697 336.924C288.573 321.434 286.712 305.486 286.227 289.193C286.142 286.339 286.099 283.474 286.099 280.6C286.099 272.67 286.424 264.816 287.063 257.051Z" fill="#84DAFF"/>
<path d="M287.063 257.051C288.695 237.217 292.37 217.963 297.877 199.498C271.644 213.416 247.858 231.335 227.334 252.442C216.313 263.776 206.233 276.028 197.218 289.074C196.317 290.379 195.426 291.692 194.545 293.012C166.544 335.027 149.465 384.945 147.369 438.709C147.357 439.028 147.345 439.347 147.333 439.666C129.535 435.001 113.039 427.121 98.5019 416.684C98.3708 416.589 98.2399 416.495 98.1091 416.401C102.638 457.71 124.086 493.93 155.373 517.983C180.453 537.263 211.855 548.726 245.934 548.726C297.798 548.726 343.462 522.177 370.075 481.928C385.608 458.437 394.652 430.279 394.652 400.008C394.652 350.374 370.337 306.419 332.969 279.405C333.559 284.788 333.862 290.257 333.862 295.797C333.862 306.423 332.748 316.788 330.63 326.783C326.767 345.006 319.568 361.996 309.701 377.085C308.297 379.232 306.839 381.341 305.328 383.409C299.515 368.487 294.93 352.951 291.697 336.924C288.573 321.434 286.712 305.486 286.227 289.193C286.142 286.339 286.099 283.474 286.099 280.6C286.099 272.67 286.424 264.816 287.063 257.051Z" fill="url(#paint0_linear_7_49)" fill-opacity="0.2"/>
<defs>
<linearGradient id="paint0_linear_7_49" x1="349.862" y1="524.21" x2="270.362" y2="211.21" gradientUnits="userSpaceOnUse">
<stop stop-color="#00A8F0"/>
<stop offset="1" stop-color="white" stop-opacity="0.43"/>
</linearGradient>
</defs>
</svg>
