<svg width="302" height="417" viewBox="0 0 302 417" fill="none" xmlns="http://www.w3.org/2000/svg">
<g clip-path="url(#clip0_9_66)">
<path d="M214.977 40.6087C220.176 27.1294 223.857 13.383 226.091 -0.425781C238.841 16.9593 248.727 36.1864 255.474 56.4667C259.097 67.3564 261.815 78.5498 263.586 89.9248C263.763 91.0627 263.93 92.2023 264.088 93.3437C269.118 129.652 264.51 167.676 248.895 203.481C248.802 203.693 248.709 203.905 248.616 204.117C261.723 206.691 274.995 206.752 287.794 204.523C287.91 204.502 288.025 204.482 288.141 204.462C272.129 230.032 246.668 246.931 218.618 252.768C196.134 257.447 171.987 255.019 149.711 244.252C115.811 227.867 94.3515 196.087 89.6718 161.371C86.9405 141.109 89.9252 119.846 99.4885 100.06C115.169 67.6178 144.949 46.569 177.909 40.7171C175.822 44.0491 173.897 47.5284 172.146 51.1496C168.789 58.0949 166.243 65.2222 164.47 72.4243C161.237 85.5556 160.575 98.9357 162.258 111.915C162.497 113.762 162.784 115.601 163.118 117.431C171.632 109.513 179.537 100.807 186.713 91.3528C193.649 82.215 199.904 72.3789 205.369 61.8823C206.326 60.0437 207.259 58.1848 208.168 56.3059C210.673 51.1226 212.941 45.8861 214.977 40.6087Z" fill="#009DE0"/>
<path d="M253.862 119.249C258.54 107.651 264.337 96.7812 271.085 86.7274C252.746 90.187 235.13 96.5042 218.877 105.343C210.149 110.088 201.815 115.561 193.972 121.709C193.188 122.324 192.408 122.946 191.633 123.574C166.993 143.565 147.434 170.336 136.148 202.209C136.081 202.398 136.015 202.588 135.948 202.777C126.138 196.658 117.708 188.852 110.931 179.877C110.869 179.796 110.808 179.715 110.748 179.634C105.761 205.269 111.876 231.005 126.166 251.276C137.621 267.524 154.328 280.259 174.779 286.615C205.903 296.289 238.258 288.873 261.736 269.683C275.439 258.482 286.118 243.271 291.764 225.105C301.021 195.319 294.628 164.407 277.241 141.225C276.591 144.566 275.753 147.904 274.72 151.229C272.738 157.606 270.136 163.618 267.001 169.221C261.284 179.437 253.795 188.29 245.059 195.504C243.816 196.531 242.548 197.525 241.256 198.484C240.55 188.445 240.696 178.266 241.745 168.046C242.76 158.167 244.617 148.25 247.365 138.381C247.846 136.653 248.355 134.926 248.891 133.201C250.37 128.442 252.03 123.789 253.862 119.249Z" fill="#2EC0FF"/>
<path d="M105.724 124.408C103.226 107.412 102.558 90.5051 103.584 73.9045C84.2424 90.7274 67.7398 110.437 54.6015 132.19C47.5467 143.871 41.462 156.141 36.4285 168.87C35.925 170.143 35.4321 171.421 34.9497 172.703C19.6044 213.496 14.9871 258.803 23.7178 304.419C23.7696 304.69 23.8218 304.96 23.8745 305.231L45.9204 369.515C70.7714 380.832 99.4129 384.341 128.068 377.69C171.678 367.567 204.893 336.331 219.415 297.293C227.891 274.509 230 249.067 224.092 223.615C214.404 181.88 185.38 149.666 148.687 134.244C150.234 138.655 151.556 143.195 152.637 147.854C154.711 156.788 155.797 165.721 155.967 174.539C156.276 190.615 153.539 206.307 148.187 220.92C147.425 222.999 146.611 225.057 145.744 227.091C137.944 215.678 131.056 203.509 125.21 190.665C119.56 178.25 114.882 165.203 111.294 151.598C110.666 149.214 110.07 146.814 109.509 144.397C107.962 137.729 106.703 131.062 105.724 124.408Z" fill="#2EC0FF"/>
<path d="M192.431 120.418C194.089 100.27 197.822 80.7096 203.416 61.9517C176.767 76.0908 152.604 94.2944 131.753 115.736C120.558 127.25 110.317 139.697 101.16 152.95C100.244 154.276 99.3383 155.609 98.4441 156.951C69.9974 199.633 52.6481 250.343 50.5185 304.962C50.5058 305.286 50.4938 305.61 50.4822 305.934C32.4013 301.195 15.6427 293.189 0.875126 282.586C0.741949 282.491 0.608928 282.395 0.476074 282.299C5.07729 324.264 26.8653 361.06 58.6498 385.495C84.1275 405.081 116.028 416.726 150.649 416.726C203.337 416.726 249.726 389.756 276.762 348.867C292.541 325.003 301.729 296.397 301.729 265.646C301.729 215.224 277.028 170.571 239.066 143.127C239.666 148.596 239.974 154.152 239.974 159.78C239.974 170.574 238.841 181.104 236.69 191.258C232.766 209.77 225.452 227.031 215.429 242.358C214.002 244.54 212.521 246.682 210.987 248.783C205.081 233.624 200.423 217.841 197.139 201.56C193.965 185.824 192.074 169.623 191.581 153.071C191.495 150.171 191.451 147.261 191.451 144.341C191.451 136.285 191.782 128.307 192.431 120.418Z" fill="#84DAFF"/>
<path d="M192.431 120.418C194.089 100.27 197.822 80.7096 203.416 61.9517C176.767 76.0908 152.604 94.2944 131.753 115.736C120.558 127.25 110.317 139.697 101.16 152.95C100.244 154.276 99.3383 155.609 98.4441 156.951C69.9974 199.633 52.6481 250.343 50.5185 304.962C50.5058 305.286 50.4938 305.61 50.4822 305.934C32.4013 301.195 15.6427 293.189 0.875126 282.586C0.741949 282.491 0.608928 282.395 0.476074 282.299C5.07729 324.264 26.8653 361.06 58.6498 385.495C84.1275 405.081 116.028 416.726 150.649 416.726C203.337 416.726 249.726 389.756 276.762 348.867C292.541 325.003 301.729 296.397 301.729 265.646C301.729 215.224 277.028 170.571 239.066 143.127C239.666 148.596 239.974 154.152 239.974 159.78C239.974 170.574 238.841 181.104 236.69 191.258C232.766 209.77 225.452 227.031 215.429 242.358C214.002 244.54 212.521 246.682 210.987 248.783C205.081 233.624 200.423 217.841 197.139 201.56C193.965 185.824 192.074 169.623 191.581 153.071C191.495 150.171 191.451 147.261 191.451 144.341C191.451 136.285 191.782 128.307 192.431 120.418Z" fill="url(#paint0_linear_9_66)" fill-opacity="0.2"/>
</g>
<defs>
<linearGradient id="paint0_linear_9_66" x1="256.228" y1="391.821" x2="175.465" y2="73.8498" gradientUnits="userSpaceOnUse">
<stop stop-color="#00A8F0"/>
<stop offset="1" stop-color="white" stop-opacity="0.43"/>
</linearGradient>
<clipPath id="clip0_9_66">
<rect width="302" height="417" fill="white"/>
</clipPath>
</defs>
</svg>
